<svg xmlns="http://www.w3.org/2000/svg" xmlns:xlink="http://www.w3.org/1999/xlink" aria-hidden="true" role="img" fill="none" viewBox="12.55 12.3 39.09 39.46">
  <path fill="#2a2941" fill-rule="evenodd" d="m34.903 15.024-22.354 9.754 11.24 26.985 21.902-9.779z" clip-rule="evenodd"/>
  <path fill="#fff" fill-rule="evenodd" d="m37.487 14.899-4.767-1.6L15.259 21l10.813 26.06 20.697-8.903-9.282-23.184z" clip-rule="evenodd"/>
  <path fill="#2a2941" fill-rule="evenodd" d="m47.974 38.583-9.76-24.434-5.544-1.851-18.616 8.128L25.57 48.162zm-11.19-22.884 8.756 21.909-18.967 8.153-10.085-24.284 16.257-7.103 3.964 1.325z" clip-rule="evenodd"/>
  <path fill="#2a2941" fill-rule="evenodd" d="M31.44 13.298 33.698 18l4.893-2.176-.628-1.325-3.537 1.575-1.606-3.376-1.33.65zM21.38 26.478l2.86-1.25-1.054-2.426-2.86 1.25zM24.29 33.281l2.86-1.25-1.053-2.451-2.86 1.25zM27.326 40.509l2.86-1.25-1.079-2.427-2.86 1.326zM33.498 22.552a6.86 6.86 0 0 1 3.888 0 6.64 6.64 0 0 1 3.262 2.126c.853 1 1.405 2.25 1.58 3.551a6.7 6.7 0 0 1-.627 3.827 6.8 6.8 0 0 1-2.634 2.876 6.9 6.9 0 0 1-3.763.975 6.73 6.73 0 0 1-3.688-1.25 7 7 0 0 1-2.409-3.052c-.602-1.775-.502-3.726.326-5.402a7.1 7.1 0 0 1 4.065-3.651" clip-rule="evenodd"/>
  <path fill="#4c5efd" fill-rule="evenodd" d="m42.153 26.653-.778 3.177 8.154 2.025.803-3.176z" clip-rule="evenodd"/>
  <path fill="#2a2941" fill-rule="evenodd" d="m47.422 27.279-1.255 4.802 1.104.3 1.23-4.827z" clip-rule="evenodd"/>
  <path fill="#2a2941" fill-rule="evenodd" d="m51.636 27.854-10.361-2.551-1.33 5.352 10.362 2.551zm-9.533-1.2-.778 3.176 8.154 2.026.803-3.177z" clip-rule="evenodd"/>
  <path fill="#f0edff" fill-rule="evenodd" d="M33.874 21.001c1.23-.45 2.559-.55 3.813-.25 1.28.3 2.434.95 3.312 1.9a6.55 6.55 0 0 1 1.706 3.427 6.6 6.6 0 0 1-.477 3.802 6.631 6.631 0 0 1-6.197 3.927 6.7 6.7 0 0 1-3.637-1.176 6.53 6.53 0 0 1-2.384-3.001 6.5 6.5 0 0 1-.451-2.576c.025-.876.2-1.751.577-2.551s.878-1.526 1.505-2.126A6.7 6.7 0 0 1 33.874 21" clip-rule="evenodd"/>
  <path fill="#2a2941" fill-rule="evenodd" d="M33.548 20.101a7.52 7.52 0 0 0-3.337 2.776 7.436 7.436 0 0 0 .025 8.303 7.5 7.5 0 0 0 3.362 2.751 7.6 7.6 0 0 0 4.34.45 7.43 7.43 0 0 0 3.864-2.025 7.6 7.6 0 0 0 2.082-3.802 7.5 7.5 0 0 0-.376-4.326 7.4 7.4 0 0 0-1.656-2.476 7.7 7.7 0 0 0-2.459-1.651 7.7 7.7 0 0 0-2.91-.575c-1.028 0-2.032.2-2.935.575m2.81 1.326h.15c1.13 0 2.258.325 3.186.95a5.6 5.6 0 0 1 2.108 2.576 5.75 5.75 0 0 1 .376 3.376 5.65 5.65 0 0 1-1.58 3.001 5.77 5.77 0 0 1-2.986 1.626 5.83 5.83 0 0 1-3.387-.325 6 6 0 0 1-2.634-2.151 5.8 5.8 0 0 1-.979-3.251c0-1.15.352-2.276 1.004-3.252.652-.95 1.58-1.7 2.66-2.125h.15a6.6 6.6 0 0 1 1.982-.375zm-2.81-1.326-.301.125z" clip-rule="evenodd"/>
  <path fill="#a694fe" fill-rule="evenodd" d="M34.702 23.102a4.4 4.4 0 0 1 2.484-.2c.828.175 1.58.6 2.157 1.2a4.3 4.3 0 0 1 1.13 2.201 4.3 4.3 0 0 1-.277 2.451 4.2 4.2 0 0 1-1.605 1.876c-.703.45-1.53.7-2.384.675s-1.68-.275-2.358-.75a4.33 4.33 0 0 1-1.556-1.926 4.24 4.24 0 0 1 .05-3.276 4.42 4.42 0 0 1 2.359-2.251" clip-rule="evenodd"/>
  <path fill="#2a2941" fill-rule="evenodd" d="M34.551 22.752c-.853.35-1.58.925-2.107 1.676a4.7 4.7 0 0 0-.828 2.55c-.025.926.25 1.801.728 2.577a4.67 4.67 0 0 0 2.057 1.75 4.7 4.7 0 0 0 2.684.325 4.54 4.54 0 0 0 2.409-1.225 4.73 4.73 0 0 0 1.33-2.326c.2-.9.125-1.826-.201-2.676a4.4 4.4 0 0 0-.979-1.526q-.64-.675-1.505-1.05a4.9 4.9 0 0 0-1.781-.4c-.602 0-1.23.1-1.807.325m.301.7a4.1 4.1 0 0 1 2.258-.175 3.9 3.9 0 0 1 1.957 1.1c.527.55.878 1.251 1.029 2.001.125.75.05 1.526-.251 2.226s-.803 1.3-1.455 1.726a3.94 3.94 0 0 1-2.158.625c-.777 0-1.505-.25-2.157-.675a3.85 3.85 0 0 1-1.405-1.75 3.83 3.83 0 0 1 .075-2.977 3.78 3.78 0 0 1 2.107-2.1" clip-rule="evenodd"/>
</svg>